<?xml version="1.0" encoding="UTF-8"?>
<svg id="_레이어_2" data-name="레이어 2" xmlns="http://www.w3.org/2000/svg" viewBox="0 0 163.54 172.97">
  <g id="_레이어_1-2" data-name="레이어 1">
    <path d="M81.77,0C36.61,0,0,33.86,0,75.64c0,30.85,12.92,45.58,30.62,59.01l.08,.04v36.2c0,1.71,1.95,2.69,3.32,1.67l31.01-23.03,.67,.29c5.2,.96,10.57,1.47,16.07,1.47,45.16,0,81.77-33.87,81.77-75.64S126.94,0,81.77,0m-27.41,94.8c8.02,0,14.87-4.8,16.94-12.21h11.85c-2.9,14.27-14,23.61-28.79,23.61-17.19,0-30.81-12.82-30.81-30.66s13.63-30.66,30.81-30.66c14.94,0,26.12,9.54,28.88,24.05h-11.82c-1.8-7.89-8.89-12.81-17.06-12.81-11.56,0-19.24,8.24-19.24,19.41s8.74,19.25,19.24,19.25m78.12,10.23h-10.87v-24.51c0-5.64-3.29-8.68-8.34-8.68-5.64,0-9.26,3.45-9.26,10.44v22.74h-10.87V45.08h10.87v22.55c2.6-3.96,6.82-5.89,12.55-5.89,4.64,0,8.43,1.51,11.37,4.63,3.03,3.12,4.55,7.33,4.55,12.8v25.86Z"/>
  </g>
</svg>